<svg width="27" height="32" viewBox="0 0 27 32" fill="none" xmlns="http://www.w3.org/2000/svg">
<path d="M6.56496 0C6.2695 0 6.04896 0.238377 6.03163 0.533342V8.62814C6.56786 8.82165 6.98374 9.29421 7.07746 9.87918C7.08119 9.89954 7.29402 11.0933 8.16496 12.35V0.533342C8.16496 0.237873 7.9271 0 7.63163 0H6.56496ZM19.365 0C19.0695 0 18.849 0.238377 18.8316 0.533342V12.3448C19.7079 11.078 19.9223 9.86873 19.9223 9.86873C20.0192 9.28922 20.4325 8.82078 20.965 8.62814V0.533342C20.965 0.237873 20.7271 0 20.4316 0H19.365ZM9.76496 2.13337C9.4695 2.13337 9.23163 2.3712 9.23163 2.66665V13.5511C9.77772 14.0255 10.4584 14.4281 11.365 14.6729V2.66665C11.365 2.3712 11.1271 2.13337 10.8316 2.13337H9.76496ZM16.165 2.13337C15.8695 2.13337 15.6316 2.3712 15.6316 2.66665V14.6729C16.5384 14.4277 17.219 14.024 17.765 13.549V2.66665C17.765 2.3712 17.5271 2.13337 17.2316 2.13337H16.165ZM3.36496 4.26667C3.0695 4.26667 2.83163 4.50454 2.83163 4.80001V8.5323H4.96496V4.80001C4.96496 4.50454 4.7271 4.26667 4.43163 4.26667H3.36496ZM12.965 4.26667C12.6695 4.26667 12.4316 4.50454 12.4316 4.80001V14.875C12.7626 14.9125 13.1168 14.9333 13.4973 14.9333C13.8789 14.9333 14.2332 14.9127 14.565 14.875V4.80001C14.565 4.50454 14.3271 4.26667 14.0316 4.26667H12.965ZM22.565 4.26667C22.2695 4.26667 22.0316 4.50454 22.0316 4.80001V8.5323H24.165V4.80001C24.165 4.50454 23.9271 4.26667 23.6316 4.26667H22.565ZM0.698296 9.59898C0.377187 9.60011 0.129853 9.88259 0.171213 10.201L2.83684 30.4646C2.93118 31.2584 3.55092 32 4.43059 32H22.565C23.4424 32 24.0617 31.2601 24.1587 30.4688L26.8285 10.201C26.87 9.88093 26.62 9.59759 26.2973 9.59898H21.4983C21.2373 9.60031 21.0156 9.79025 20.9743 10.0479C20.9743 10.0479 20.7221 11.5286 19.6629 13.0239C18.6037 14.5193 16.8009 16 13.4983 16C10.1957 16 8.39189 14.5193 7.33267 13.0239C6.27347 11.5286 6.02538 10.0479 6.02538 10.0479C5.98388 9.78906 5.76045 9.59878 5.4983 9.59898H0.698296ZM13.4983 19.7344C15.8484 19.7344 17.765 21.6478 17.765 23.9979C17.765 26.348 15.8484 28.2656 13.4983 28.2656C11.1482 28.2656 9.22954 26.348 9.22954 23.9979C9.22954 21.6478 11.1482 19.7344 13.4983 19.7344Z" fill="#FF7010"/>
</svg>
